# xmcd
#
# Track frame offsets: 
#        182
#        12665
#        25685
#        40407
#        54782
#        68707
#        82785
#        95205
#        108127
#        121627
#        136645
#        152180
#        168187
#        183965
#        197440
#        210350
#        222415
#        234837
#        247340
#        259287
#        272807
#        285545
#        299232
#
# Disc length: 4188 seconds
#
# Revision: 0
# Processed by: cddbd v1.4PL0 Copyright (c) Steve Scherf et al.
# Submitted via: ExactAudioCopy v0.95a4
#
DISCID=43105a17
DTITLE=Various Artist - St. Louis Blues
DYEAR=1998
DGENRE=Blues
TTITLE0=Henry Spaulding - Cairo Blues
TTITLE1=Henry Spaulding - Biddle Street Blues
TTITLE2=Henry Townsend - Henry's Worry Blues
TTITLE3=Henry Townsend - Mistreated Blues
TTITLE4=Henry Townsend - Long Ago Blues
TTITLE5=Henry Townsend - Poor Man Blues
TTITLE6=Henry Townsend - She's Got What I Want
TTITLE7=Henry Townsend - My Sweet Candy
TTITLE8=Henry Townsend - Sick With The Blues
TTITLE9=Henry Townsend - Don't Love That Woman
TTITLE10=Henry Townsend - She's Got A Mean Disposition
TTITLE11=Henry Townsend - Lose Your Man
TTITLE12=Henry Townsend - All I've Got's Gone
TTITLE13=Henry Townsend - A Ramblin' Mind
TTITLE14=Henry Townsend - Now I Stay Away
TTITLE15=Charley Jordan - Stack O'Dollars Blues
TTITLE16=Charley Jordan - Keep It Clean
TTITLE17=Charley Jordan - Big Four Blues
TTITLE18=Charley Jordan - Just A Spoonful
TTITLE19=Charley Jordan - Two Street Blues
TTITLE20=Charley Jordan - Raidin' Squad Blues
TTITLE21=Charley Jordan - Hunkie Tunkie Blues
TTITLE22=Charley Jordan - Gasoline Blues
EXTD=
EXTT0=
EXTT1=
EXTT2=
EXTT3=
EXTT4=
EXTT5=
EXTT6=
EXTT7=
EXTT8=
EXTT9=
EXTT10=
EXTT11=
EXTT12=
EXTT13=
EXTT14=
EXTT15=
EXTT16=
EXTT17=
EXTT18=
EXTT19=
EXTT20=
EXTT21=
EXTT22=
PLAYORDER=
